<?xml version="1.0" standalone="no"?>
<!DOCTYPE svg PUBLIC "-//W3C//DTD SVG 20010904//EN"
 "http://www.w3.org/TR/2001/REC-SVG-20010904/DTD/svg10.dtd">
<svg version="1.0" xmlns="http://www.w3.org/2000/svg"
 width="4267.000000pt" height="1017.000000pt" viewBox="0 0 4267.000000 1017.000000"
 preserveAspectRatio="xMidYMid meet">
<metadata>
Created by potrace 1.15, written by Peter Selinger 2001-2017
</metadata>
<g transform="translate(0.000000,1017.000000) scale(0.100000,-0.100000)"
fill="#000000" stroke="none">
<path d="M2330 10118 c0 -7 -15 -35 -33 -62 -17 -27 -40 -63 -50 -79 -10 -16
-31 -43 -47 -60 -17 -18 -51 -69 -76 -113 -26 -45 -66 -104 -90 -130 -24 -27
-75 -94 -112 -149 -37 -55 -86 -122 -110 -150 -102 -120 -121 -143 -162 -200
-24 -33 -77 -95 -118 -137 -41 -43 -90 -98 -108 -123 -32 -46 -51 -66 -134
-138 -24 -21 -61 -60 -82 -87 -21 -27 -67 -71 -102 -99 -34 -27 -101 -87 -147
-133 -47 -46 -105 -96 -130 -112 -24 -17 -48 -35 -54 -41 -22 -23 -187 -153
-250 -195 -36 -25 -116 -82 -177 -127 -62 -46 -116 -83 -122 -83 -5 0 -17 -6
-25 -13 -9 -7 -35 -19 -58 -27 l-43 -13 0 -3324 0 -3323 1326 0 c894 0 1332 3
1345 10 19 11 19 71 19 4465 l0 4455 -230 0 c-177 0 -230 -3 -230 -12z"/>
<path d="M6360 10121 c0 -5 -36 -57 -80 -116 -44 -59 -80 -109 -80 -112 0 -17
-122 -182 -176 -238 -7 -6 -32 -43 -56 -81 -25 -38 -67 -90 -93 -117 -26 -26
-67 -75 -91 -108 -23 -33 -73 -93 -111 -133 -37 -40 -91 -99 -120 -132 -28
-32 -104 -112 -170 -176 -118 -117 -130 -128 -219 -203 -26 -22 -65 -58 -88
-80 -36 -37 -61 -56 -114 -90 -29 -18 -44 -30 -65 -50 -71 -67 -161 -135 -207
-157 -14 -6 -45 -28 -70 -47 -25 -20 -65 -50 -90 -66 -25 -17 -49 -34 -55 -38
-24 -19 -151 -97 -158 -97 -9 0 -142 -86 -178 -115 -21 -17 -98 -57 -189 -99
-8 -4 -37 -20 -65 -35 l-50 -27 -3 -787 -2 -787 611 0 611 0 -7 -22 c-4 -13
-11 -84 -15 -158 -4 -74 -12 -148 -19 -165 -7 -16 -16 -109 -21 -205 -5 -96
-14 -191 -20 -210 -7 -19 -16 -141 -20 -270 -5 -129 -14 -278 -21 -330 -21
-146 -17 -797 4 -960 9 -68 17 -174 17 -235 0 -62 7 -138 16 -175 8 -36 19
-115 24 -175 5 -64 15 -123 24 -140 10 -18 16 -56 16 -96 0 -37 7 -83 15 -102
8 -20 15 -51 15 -69 0 -18 11 -76 25 -128 14 -52 30 -114 36 -138 6 -23 14
-42 18 -42 4 0 13 -24 20 -52 8 -29 19 -60 26 -68 7 -8 16 -30 20 -48 4 -18
13 -36 21 -39 8 -3 14 -16 14 -29 0 -13 9 -41 20 -61 11 -21 20 -44 20 -51 0
-18 86 -169 124 -216 32 -41 36 -46 101 -142 38 -56 45 -66 71 -96 6 -7 30
-29 53 -48 55 -45 63 -52 92 -86 26 -31 133 -124 142 -124 3 0 40 -24 82 -53
109 -74 113 -76 216 -135 51 -29 111 -57 132 -62 22 -4 44 -13 50 -19 6 -6 23
-11 38 -11 14 0 37 -9 51 -19 13 -11 41 -22 61 -26 20 -4 41 -13 48 -21 6 -8
23 -14 37 -14 13 0 43 -8 66 -19 70 -32 255 -75 366 -86 41 -3 81 -10 90 -15
8 -4 76 -11 150 -15 74 -4 160 -13 190 -21 81 -21 852 -20 965 1 44 8 145 19
225 24 219 15 456 48 544 76 27 8 63 15 80 15 18 0 41 7 53 15 12 8 43 18 68
22 26 3 63 14 83 24 20 11 47 19 61 19 13 0 32 7 42 16 10 9 37 18 61 21 24 3
55 12 70 19 15 8 36 14 47 14 22 0 151 49 226 87 28 13 64 31 80 39 17 8 37
19 45 25 8 5 26 14 40 20 14 6 32 15 40 20 8 5 26 14 40 19 14 6 32 14 40 19
8 4 42 22 75 40 33 18 80 48 105 67 25 19 55 39 68 46 12 6 22 15 22 20 0 5
15 16 33 24 65 30 91 51 99 79 8 33 12 1794 4 1803 -3 3 -27 5 -53 4 -52 -2
-44 4 -153 -123 -24 -28 -78 -78 -120 -111 -41 -32 -87 -68 -101 -81 -26 -21
-76 -56 -169 -117 -25 -16 -51 -30 -58 -30 -7 0 -20 -7 -28 -15 -9 -8 -24 -15
-35 -15 -11 0 -61 -20 -111 -45 -51 -25 -99 -45 -108 -45 -8 0 -32 -9 -53 -20
-20 -11 -45 -20 -55 -20 -10 0 -36 -9 -57 -21 -23 -12 -68 -23 -105 -26 -36
-3 -74 -10 -85 -16 -42 -22 -564 -48 -730 -36 -156 10 -255 25 -268 38 -6 6
-22 11 -37 11 -21 0 -77 31 -125 67 -5 5 -44 34 -85 65 -43 33 -88 78 -105
104 -47 73 -82 135 -104 180 -11 23 -24 45 -30 48 -6 4 -11 20 -11 36 0 16 -7
33 -16 38 -11 6 -18 28 -22 63 -2 30 -11 63 -18 74 -8 11 -14 41 -14 68 0 27
-6 88 -14 136 -27 161 -36 355 -36 791 0 420 8 667 32 950 6 74 14 221 17 325
4 118 11 201 19 220 7 16 12 50 10 75 l-3 45 1401 3 1402 2 3 33 c2 17 3 499
1 1070 l-2 1037 -1378 0 -1377 -1 3 108 c2 60 9 164 17 233 8 69 17 262 20
430 3 168 12 404 20 525 8 121 17 275 19 343 l6 122 -800 0 c-458 0 -800 -4
-800 -9z"/>
<path d="M37868 9462 c-122 -108 -2413 -2414 -2416 -2431 -2 -15 262 -285
1056 -1080 897 -897 1064 -1060 1093 -1066 19 -3 1130 -4 2469 -3 2279 3 2435
4 2438 20 2 11 -749 770 -2285 2307 -1259 1260 -2294 2291 -2300 2291 -6 0
-31 -17 -55 -38z"/>
<path d="M15490 8569 c-41 -4 -154 -12 -250 -18 -181 -11 -424 -36 -440 -46
-5 -3 -47 -10 -93 -15 -47 -6 -100 -16 -118 -24 -19 -7 -60 -16 -92 -20 -32
-3 -72 -13 -88 -21 -16 -9 -50 -18 -76 -22 -27 -3 -58 -12 -69 -20 -12 -7 -46
-16 -75 -19 -30 -3 -68 -12 -86 -20 -17 -8 -43 -14 -57 -14 -29 0 -185 -50
-231 -74 -16 -9 -36 -16 -44 -16 -7 0 -28 -8 -45 -19 -17 -10 -42 -22 -56 -26
-14 -4 -36 -16 -49 -26 -13 -11 -33 -19 -45 -19 -11 0 -30 -7 -40 -15 -11 -8
-28 -15 -37 -15 -28 0 -218 -99 -309 -162 -47 -32 -93 -58 -102 -58 -8 0 -21
-7 -28 -15 -7 -8 -18 -15 -24 -15 -10 0 -207 -143 -337 -245 -61 -47 -355
-337 -400 -395 -20 -25 -56 -70 -80 -100 -103 -127 -144 -187 -182 -259 -22
-42 -48 -86 -59 -97 -37 -41 -158 -276 -158 -306 0 -10 -6 -29 -14 -41 -8 -12
-17 -38 -21 -57 -4 -19 -16 -46 -26 -59 -11 -13 -19 -34 -19 -46 0 -12 -6 -28
-14 -34 -7 -6 -16 -28 -20 -49 -3 -20 -13 -50 -22 -67 -9 -16 -22 -55 -29 -85
-7 -30 -18 -73 -24 -95 -6 -22 -18 -83 -26 -135 -8 -52 -19 -117 -24 -145 -5
-27 -10 -78 -10 -111 -1 -34 -9 -81 -18 -105 -16 -40 -18 -93 -18 -554 0 -457
2 -516 18 -564 10 -33 17 -86 17 -133 0 -43 6 -111 14 -151 8 -40 17 -97 21
-127 9 -83 26 -180 40 -230 7 -25 16 -60 19 -78 3 -19 12 -48 19 -65 8 -18 19
-54 26 -82 7 -27 16 -51 22 -53 5 -2 9 -14 9 -27 0 -13 11 -45 25 -71 14 -26
25 -59 25 -73 0 -14 7 -35 15 -45 8 -11 15 -31 15 -45 0 -14 7 -35 15 -45 8
-11 15 -26 15 -34 0 -17 58 -137 99 -207 17 -27 37 -66 46 -85 9 -19 19 -37
23 -40 4 -3 18 -27 32 -55 37 -76 86 -150 144 -218 28 -34 69 -89 91 -122 55
-85 326 -365 353 -365 7 0 15 -7 18 -15 4 -8 11 -15 16 -15 6 0 41 -30 78 -66
62 -61 90 -82 130 -100 8 -4 52 -32 98 -63 152 -103 302 -191 326 -191 5 0 66
-27 135 -61 69 -33 144 -69 166 -79 68 -33 207 -80 235 -80 14 0 34 -6 45 -14
11 -7 44 -15 73 -18 29 -3 60 -12 70 -22 10 -9 32 -16 48 -16 16 0 46 -8 66
-19 20 -10 59 -21 87 -24 27 -3 63 -13 80 -21 16 -9 42 -16 56 -16 15 0 61 -9
103 -19 43 -11 118 -24 167 -30 50 -6 124 -16 165 -21 41 -6 152 -15 245 -21
94 -5 208 -16 255 -24 120 -21 1016 -21 1105 -1 33 8 138 17 234 21 96 4 183
10 195 15 12 4 62 10 111 14 128 9 292 38 450 77 22 6 63 15 90 21 28 6 68 19
91 29 22 11 55 19 74 19 18 0 41 7 51 16 9 8 41 19 71 23 29 4 63 13 75 19 12
7 32 12 45 12 35 0 290 93 318 116 8 7 29 16 45 20 17 3 37 12 45 20 8 7 29
16 45 20 17 3 37 12 45 19 8 7 31 18 50 23 81 24 126 46 245 114 133 78 233
132 262 141 10 4 27 12 37 19 11 7 43 28 70 46 28 18 70 47 94 65 23 18 66 43
96 57 47 22 55 29 60 60 3 19 6 396 6 838 l0 802 -46 0 c-37 0 -50 -5 -66 -25
-11 -14 -23 -25 -28 -25 -11 0 -63 -34 -118 -79 -75 -58 -279 -201 -290 -201
-8 0 -143 -90 -169 -113 -25 -22 -44 -33 -123 -72 -30 -14 -66 -33 -80 -41
-14 -8 -70 -40 -125 -71 -55 -31 -111 -65 -124 -75 -13 -10 -33 -18 -45 -18
-11 0 -30 -7 -40 -15 -11 -8 -27 -15 -36 -15 -9 0 -67 -20 -129 -45 -62 -25
-120 -45 -129 -45 -9 0 -32 -9 -50 -20 -18 -11 -47 -20 -65 -20 -18 0 -48 -8
-67 -19 -19 -10 -66 -21 -105 -25 -38 -4 -76 -12 -83 -19 -8 -6 -65 -15 -126
-18 -61 -4 -138 -11 -171 -17 -250 -43 -1289 -37 -1435 7 -19 6 -68 11 -108
11 -45 0 -84 6 -102 15 -15 8 -55 18 -87 21 -32 4 -74 15 -93 26 -19 10 -46
18 -60 18 -14 0 -38 9 -55 20 -16 11 -37 20 -46 20 -9 0 -60 20 -115 45 -54
25 -106 45 -115 45 -9 0 -22 7 -29 15 -7 8 -19 15 -26 15 -8 0 -70 45 -139
101 -117 94 -156 136 -247 267 -13 18 -30 40 -38 49 -21 23 -60 104 -60 126 0
10 -9 35 -20 55 -32 61 -70 150 -70 164 0 8 -9 31 -20 53 -11 22 -20 48 -20
60 0 11 -9 34 -20 50 -11 17 -20 41 -20 55 0 14 -7 38 -15 54 -8 15 -15 30
-15 32 0 2 1242 4 2760 4 l2759 0 7 38 c3 20 13 69 21 107 16 81 42 558 43
785 0 191 -27 654 -41 695 -6 17 -14 76 -19 132 -5 56 -14 112 -20 124 -7 11
-16 51 -21 88 -5 36 -18 85 -29 108 -12 25 -20 64 -20 92 0 27 -5 51 -11 53
-6 2 -14 34 -19 71 -4 37 -13 73 -18 80 -5 7 -15 36 -21 65 -9 45 -38 125 -71
197 -5 11 -16 36 -25 55 -20 45 -44 91 -56 110 -21 34 -59 125 -59 143 0 9 -4
18 -9 21 -5 4 -26 37 -47 74 -33 60 -56 93 -97 142 -22 27 -57 81 -57 89 0 4
-11 21 -25 37 -14 16 -25 33 -25 37 0 4 -36 45 -79 90 -44 45 -97 105 -119
132 -22 28 -67 72 -99 97 -33 26 -82 68 -109 95 -64 63 -125 107 -184 133 -13
6 -31 18 -40 26 -62 58 -244 170 -313 193 -20 7 -39 16 -42 21 -3 4 -21 11
-40 14 -20 4 -38 13 -41 21 -3 7 -17 16 -32 20 -15 4 -34 12 -42 19 -8 7 -28
18 -45 24 -16 6 -74 29 -128 51 -53 23 -111 41 -128 41 -17 0 -45 6 -62 14
-18 8 -53 17 -78 21 -26 3 -55 12 -65 20 -11 8 -35 15 -54 15 -19 0 -55 10
-80 21 -24 11 -65 22 -90 25 -25 3 -71 14 -103 25 -31 10 -74 19 -95 19 -20 0
-53 5 -72 10 -54 16 -248 39 -425 51 -88 5 -207 14 -265 19 -123 10 -611 10
-720 -1z m1140 -1862 c14 -5 68 -13 121 -17 63 -5 105 -13 120 -24 13 -9 39
-16 59 -16 20 0 53 -9 74 -19 21 -11 52 -23 69 -27 18 -3 51 -15 74 -25 23
-11 48 -19 55 -19 7 0 22 -7 32 -15 11 -8 43 -21 72 -30 29 -8 56 -20 59 -25
3 -6 15 -10 25 -10 10 0 70 -41 132 -90 166 -133 175 -141 243 -236 11 -15 25
-32 31 -38 29 -30 99 -145 116 -190 10 -28 26 -69 34 -91 8 -22 18 -49 21 -60
3 -11 14 -39 24 -62 10 -24 19 -47 19 -53 0 -7 -648 -10 -1966 -10 l-1966 0 7
23 c4 12 9 38 12 57 3 19 12 44 19 55 8 11 14 32 14 47 0 16 9 45 20 65 11 21
20 42 20 48 0 11 36 67 113 177 26 38 47 71 47 74 0 14 56 72 109 112 31 24
74 58 96 77 22 19 56 44 75 57 36 24 288 128 312 128 7 0 21 7 31 15 11 7 37
17 60 21 23 3 51 12 62 20 11 7 45 16 75 20 30 3 66 13 80 22 17 11 56 17 120
20 52 2 104 9 115 16 41 23 1108 27 1165 3z"/>
<path d="M20387 8362 c-26 -5 -22 -66 8 -110 47 -70 70 -100 134 -173 35 -40
83 -102 107 -138 24 -37 66 -90 93 -120 28 -30 67 -79 88 -108 43 -61 226
-295 259 -332 12 -13 28 -35 36 -50 7 -14 19 -32 26 -39 6 -7 12 -16 12 -20 0
-4 32 -40 70 -79 39 -40 70 -78 70 -84 0 -11 99 -142 155 -204 39 -43 95 -120
95 -130 0 -3 15 -23 34 -43 43 -47 131 -159 225 -287 41 -55 93 -120 116 -145
44 -46 115 -144 115 -157 0 -5 26 -36 59 -69 32 -34 85 -101 119 -150 33 -49
81 -111 106 -139 25 -27 65 -77 88 -109 24 -32 88 -116 143 -185 56 -69 116
-148 135 -176 19 -27 41 -56 48 -63 6 -7 12 -17 12 -20 0 -4 29 -37 64 -74 35
-37 74 -87 86 -111 12 -25 43 -66 68 -93 64 -69 152 -179 152 -191 0 -5 -27
-39 -60 -74 -33 -35 -72 -82 -87 -104 -41 -59 -201 -263 -250 -318 -23 -27
-56 -72 -72 -101 -17 -29 -58 -79 -91 -112 -33 -32 -60 -62 -60 -66 0 -12 -77
-120 -119 -168 -22 -25 -62 -73 -88 -108 -42 -55 -153 -198 -236 -302 -15 -19
-45 -60 -66 -90 -21 -30 -80 -104 -130 -165 -51 -60 -99 -125 -108 -143 -8
-18 -38 -56 -67 -86 -59 -63 -96 -105 -96 -113 0 -7 -100 -144 -114 -158 -29
-26 -106 -123 -106 -133 0 -6 -6 -15 -13 -19 -7 -4 -20 -19 -29 -33 -8 -14
-61 -81 -117 -149 -56 -68 -122 -154 -146 -190 -24 -36 -63 -86 -87 -112 -48
-51 -87 -102 -107 -140 -7 -14 -31 -46 -53 -70 -41 -45 -91 -108 -245 -308
-48 -62 -112 -141 -141 -174 -51 -59 -53 -62 -50 -114 l3 -54 1380 1 c853 0
1393 4 1415 10 23 6 43 22 59 45 13 19 33 45 45 58 45 48 94 113 110 144 9 18
38 57 65 85 58 62 71 80 136 173 26 39 72 96 102 129 30 32 65 75 78 95 12 20
71 97 129 170 59 73 137 174 173 224 36 51 85 112 109 136 23 24 57 69 75 99
19 30 55 78 81 106 66 73 104 121 154 198 24 37 49 70 55 74 13 8 87 -74 139
-154 20 -32 70 -97 111 -147 41 -49 114 -142 161 -205 48 -63 102 -132 121
-152 19 -21 61 -77 93 -124 32 -48 83 -113 112 -143 58 -61 95 -111 118 -161
4 -8 33 -43 65 -77 31 -34 79 -92 105 -130 26 -37 97 -127 156 -200 59 -72
108 -136 108 -142 0 -6 4 -11 10 -11 5 0 16 -15 24 -34 8 -19 25 -40 38 -48
19 -11 282 -14 1418 -18 767 -3 1401 -3 1408 -1 7 2 12 22 12 57 0 52 -1 54
-63 116 -35 35 -85 95 -110 134 -26 39 -68 95 -93 125 -79 93 -99 117 -114
139 -8 12 -36 49 -62 82 -27 34 -48 63 -48 67 0 3 -23 31 -51 61 -28 30 -76
93 -107 138 -31 46 -84 114 -119 150 -35 37 -72 85 -83 108 -11 22 -48 72 -83
110 -34 38 -91 110 -127 159 -35 50 -77 106 -94 126 -99 115 -126 148 -169
213 -26 39 -73 99 -103 133 -59 67 -144 179 -144 190 0 6 -63 81 -134 157 -20
22 -36 44 -36 48 0 12 -38 65 -87 121 -38 43 -101 124 -238 307 -27 36 -58 74
-70 85 -32 32 -95 111 -95 121 -1 12 -47 72 -117 151 -62 70 -103 126 -103
141 0 4 -33 45 -74 90 -41 46 -91 108 -112 139 -21 32 -53 74 -72 95 l-35 38
29 43 c16 23 62 84 104 136 41 52 113 144 158 205 46 61 105 136 131 166 44
52 136 174 173 230 9 14 36 45 59 70 54 55 94 108 103 135 3 11 29 45 58 75
28 30 82 97 120 148 37 50 115 149 171 220 57 70 109 138 116 151 7 12 48 65
92 117 82 97 149 188 149 201 0 5 26 35 58 68 60 64 105 120 114 145 4 8 37
51 74 95 71 85 130 161 179 230 45 64 164 209 188 230 7 6 21 26 31 46 11 20
68 95 127 165 60 71 108 136 109 144 0 9 26 43 58 77 31 33 77 89 102 122 76
104 191 246 206 254 8 4 14 14 14 21 0 8 7 19 15 26 16 14 20 47 7 68 -7 10
-279 13 -1423 13 l-1414 -1 -33 -37 c-18 -20 -44 -57 -59 -82 -15 -25 -35 -55
-46 -66 -38 -39 -154 -180 -161 -195 -18 -40 -38 -68 -79 -109 -50 -53 -117
-135 -117 -145 0 -3 -55 -75 -122 -159 -68 -83 -140 -177 -160 -208 -20 -31
-63 -85 -96 -121 -32 -35 -80 -97 -108 -138 -27 -41 -69 -96 -94 -124 -82 -91
-130 -154 -130 -167 0 -8 -28 -43 -61 -79 -34 -36 -65 -75 -70 -87 -12 -32
-26 -29 -45 10 -9 17 -60 86 -113 152 -116 145 -183 230 -196 253 -13 22 -86
111 -128 155 -18 19 -47 59 -64 88 -18 30 -58 81 -88 114 -31 33 -81 98 -112
144 -32 47 -71 98 -88 115 -35 37 -93 109 -118 148 -15 24 -181 235 -258 328
-16 19 -29 41 -29 48 0 6 -4 12 -9 12 -5 0 -12 8 -15 18 -3 9 -30 43 -61 74
l-54 58 -1394 2 c-766 2 -1401 2 -1410 0z"/>
<path d="M37508 4752 c-15 -10 -105 -97 -200 -193 -95 -97 -434 -441 -753
-764 -540 -548 -833 -845 -1042 -1057 -75 -75 -85 -90 -77 -108 5 -11 560
-572 1233 -1245 952 -953 1229 -1225 1248 -1225 19 0 94 71 321 302 273 277
593 601 1508 1528 360 364 455 460 1214 1231 261 265 564 573 673 683 737 745
818 829 815 845 -3 15 -197 16 -2458 18 -2348 3 -2456 2 -2482 -15z"/>
<path d="M28272 4725 c2 -8 273 -288 603 -622 330 -334 713 -722 850 -862 138
-139 336 -340 440 -446 105 -105 451 -456 770 -780 319 -324 666 -675 770
-781 105 -105 381 -386 615 -623 233 -237 431 -431 438 -431 19 0 2452 2439
2452 2458 0 8 -73 88 -162 177 -90 90 -541 542 -1003 1006 -462 464 -859 860
-883 881 l-43 38 -2425 0 c-2140 0 -2425 -2 -2422 -15z"/>
<path d="M34983 2168 c-186 -188 -385 -390 -443 -448 -58 -58 -258 -260 -445
-450 -187 -190 -510 -517 -718 -728 -208 -211 -375 -387 -372 -392 8 -12 4705
-14 4705 -2 0 19 -2353 2362 -2371 2362 -12 0 -149 -132 -356 -342z"/>
</g>
</svg>
